<?xml version="1.0" standalone="no"?>
<!DOCTYPE svg PUBLIC "-//W3C//DTD SVG 20010904//EN"
 "http://www.w3.org/TR/2001/REC-SVG-20010904/DTD/svg10.dtd">
<svg version="1.0" xmlns="http://www.w3.org/2000/svg"
 width="700.000000pt" height="700.000000pt" viewBox="0 0 700.000000 700.000000"
 preserveAspectRatio="xMidYMid meet">
<metadata>
Created by potrace 1.14, written by Peter Selinger 2001-2017
</metadata>
<g transform="translate(0.000000,700.000000) scale(0.100000,-0.100000)"
fill="#000000" stroke="none">
<path d="M890 6339 c-91 -93 -218 -225 -283 -291 -65 -67 -116 -125 -115 -129
2 -5 248 -257 548 -560 300 -303 633 -640 740 -749 107 -109 366 -371 575
-582 l380 -384 284 3 c156 1 285 4 287 6 2 2 4 133 4 292 l1 289 -130 130
c-72 72 -237 239 -367 371 -130 132 -569 576 -975 986 -407 411 -748 756 -758
768 -10 12 -20 21 -22 21 -2 0 -78 -77 -169 -171z"/>
<path d="M5405 5974 c-912 -923 -988 -1000 -1358 -1373 l-362 -365 0 -293 0
-293 90 -1 c49 0 180 -2 290 -3 l200 -2 225 227 c1153 1165 2015 2039 2018
2048 2 5 -127 140 -285 300 l-288 292 -530 -537z"/>
<path d="M2598 3188 c-73 -75 -311 -316 -528 -536 -1104 -1116 -1545 -1564
-1548 -1571 -1 -4 81 -94 184 -199 102 -106 230 -237 284 -293 l97 -101 77 79
c43 43 401 404 796 803 394 399 802 811 905 915 103 105 245 249 316 321 l130
130 -1 289 c0 159 -2 291 -5 293 -2 2 -132 5 -289 6 l-284 1 -134 -137z"/>
<path d="M3673 3322 l-41 -3 -1 -291 -2 -291 183 -184 c101 -101 332 -334 513
-517 182 -184 600 -607 930 -941 l600 -607 287 294 c159 161 287 296 285 300
-1 3 -265 273 -587 598 -322 325 -682 690 -800 810 -118 120 -352 357 -520
526 l-305 308 -250 0 c-137 1 -269 0 -292 -2z"/>
</g>
</svg>
